<?xml version="1.0" standalone="no"?>
<!DOCTYPE svg PUBLIC "-//W3C//DTD SVG 20010904//EN"
 "http://www.w3.org/TR/2001/REC-SVG-20010904/DTD/svg10.dtd">
<svg version="1.0" xmlns="http://www.w3.org/2000/svg"
 width="122.000000pt" height="122.000000pt" viewBox="0 0 122.000000 122.000000"
 preserveAspectRatio="xMidYMid meet">
<metadata>
Created by potrace 1.14, written by Peter Selinger 2001-2017
</metadata>
<g transform="translate(0.000000,122.000000) scale(0.100000,-0.100000)"
fill="#000000" stroke="none">
<path d="M607 1213 c-3 -7 -2 -208 2 -238 1 -9 176 -13 212 -6 3 0 6 57 6 126
l-1 125 -107 0 c-59 0 -110 -3 -112 -7z"/>
<path d="M272 808 l3 -113 90 0 c50 0 99 2 109 6 20 6 21 19 16 202 0 15 -12
17 -110 17 l-111 0 3 -112z"/>
<path d="M609 742 c-1 -9 -2 -102 -3 -207 -1 -169 -3 -194 -21 -229 -27 -54
-64 -78 -122 -81 -60 -3 -123 15 -174 51 -22 15 -42 24 -46 21 -3 -4 -35 -42
-69 -84 l-63 -78 32 -28 c41 -36 138 -82 202 -95 83 -18 204 -8 266 20 66 30
139 101 168 163 41 87 47 136 47 353 l-1 207 -107 2 c-95 1 -108 0 -109 -15z"/>
<path d="M863 167 c-27 -12 -40 -68 -25 -102 15 -33 57 -43 82 -20 20 18 27
78 12 101 -14 22 -46 32 -69 21z m48 -40 c12 -27 -3 -77 -24 -77 -22 0 -38 46
-27 75 12 31 37 32 51 2z"/>
<path d="M963 101 c1 -90 23 -86 24 4 1 48 -2 65 -12 65 -10 0 -13 -18 -12
-69z"/>
<path d="M1013 101 c-1 -52 2 -69 11 -65 8 3 11 21 10 50 -3 52 0 51 30 -7 34
-67 46 -62 46 20 0 41 -4 71 -10 71 -10 0 -13 -17 -11 -60 2 -24 1 -23 -18 8
-12 18 -21 37 -21 42 0 6 -8 10 -18 10 -15 0 -18 -10 -19 -69z"/>
</g>
</svg>
